<svg width="20" height="20" viewBox="0 0 20 20" fill="none" xmlns="http://www.w3.org/2000/svg">
<path d="M17.5 3.4375H2.5C2.0856 3.4375 1.68817 3.60212 1.39515 3.89515C1.10212 4.18817 0.9375 4.5856 0.9375 5V6.875C0.937427 7.2352 1.06181 7.58437 1.28959 7.86341C1.51738 8.14244 1.83457 8.33421 2.1875 8.40625V15C2.1875 15.4144 2.35212 15.8118 2.64515 16.1049C2.93817 16.3979 3.3356 16.5625 3.75 16.5625H16.25C16.6644 16.5625 17.0618 16.3979 17.3549 16.1049C17.6479 15.8118 17.8125 15.4144 17.8125 15V8.40625C18.1654 8.33421 18.4826 8.14244 18.7104 7.86341C18.9382 7.58437 19.0626 7.2352 19.0625 6.875V5C19.0625 4.5856 18.8979 4.18817 18.6049 3.89515C18.3118 3.60212 17.9144 3.4375 17.5 3.4375ZM2.8125 5.3125H17.1875V6.5625H2.8125V5.3125ZM4.0625 14.6875V8.4375H15.9375V14.6875H4.0625ZM12.8125 10.625C12.8125 10.8736 12.7137 11.1121 12.5379 11.2879C12.3621 11.4637 12.1236 11.5625 11.875 11.5625H8.125C7.87636 11.5625 7.6379 11.4637 7.46209 11.2879C7.28627 11.1121 7.1875 10.8736 7.1875 10.625C7.1875 10.3764 7.28627 10.1379 7.46209 9.96209C7.6379 9.78627 7.87636 9.6875 8.125 9.6875H11.875C12.1236 9.6875 12.3621 9.78627 12.5379 9.96209C12.7137 10.1379 12.8125 10.3764 12.8125 10.625Z" fill="#1F2937"/>
</svg>
