<svg width="20" height="20" viewBox="0 0 20 20" fill="none" xmlns="http://www.w3.org/2000/svg">
<path d="M12.1875 10.9375C12.1875 11.1861 12.0887 11.4246 11.9129 11.6004C11.7371 11.7762 11.4986 11.875 11.25 11.875H8.75C8.58016 11.8753 8.41345 11.8294 8.26767 11.7422C8.12189 11.6551 8.00251 11.53 7.92229 11.3803C7.84206 11.2306 7.80401 11.062 7.8122 10.8923C7.82038 10.7227 7.87449 10.5585 7.96875 10.4172L9.49844 8.125H8.75C8.50136 8.125 8.2629 8.02623 8.08709 7.85041C7.91127 7.6746 7.8125 7.43614 7.8125 7.1875C7.8125 6.93886 7.91127 6.7004 8.08709 6.52459C8.2629 6.34877 8.50136 6.25 8.75 6.25H11.25C11.4198 6.24975 11.5865 6.29564 11.7323 6.38276C11.8781 6.46989 11.9975 6.59497 12.0777 6.74467C12.1579 6.89436 12.196 7.06304 12.1878 7.23267C12.1796 7.40231 12.1255 7.56654 12.0312 7.70781L10.5016 10H11.25C11.4986 10 11.7371 10.0988 11.9129 10.2746C12.0887 10.4504 12.1875 10.6889 12.1875 10.9375ZM17.6039 14.5312C17.4681 14.7701 17.2711 14.9685 17.0331 15.1058C16.7951 15.2431 16.5248 15.3145 16.25 15.3125H3.75C3.4755 15.3142 3.2055 15.2427 2.9678 15.1054C2.73011 14.9681 2.53331 14.7699 2.39765 14.5312C2.26085 14.2926 2.1892 14.0222 2.18989 13.7471C2.19057 13.4721 2.26357 13.202 2.40156 12.9641C3.07734 11.7969 3.4375 10.1234 3.4375 8.125C3.4375 6.38452 4.1289 4.71532 5.35961 3.48461C6.59032 2.2539 8.25952 1.5625 10 1.5625C11.7405 1.5625 13.4097 2.2539 14.6404 3.48461C15.8711 4.71532 16.5625 6.38452 16.5625 8.125C16.5625 10.1227 16.9211 11.7969 17.5992 12.9633C17.7376 13.2012 17.8109 13.4713 17.8119 13.7465C17.8129 14.0218 17.7414 14.2924 17.6047 14.5312H17.6039ZM15.7289 13.4375C15.0383 12.0312 14.6875 10.2445 14.6875 8.125C14.6875 6.8818 14.1936 5.68951 13.3146 4.81044C12.4355 3.93136 11.2432 3.4375 10 3.4375C8.7568 3.4375 7.56451 3.93136 6.68544 4.81044C5.80636 5.68951 5.3125 6.8818 5.3125 8.125C5.3125 10.2453 4.9625 12.0312 4.27109 13.4375H15.7289ZM12.5 16.5625H7.5C7.25136 16.5625 7.0129 16.6613 6.83709 16.8371C6.66127 17.0129 6.5625 17.2514 6.5625 17.5C6.5625 17.7486 6.66127 17.9871 6.83709 18.1629C7.0129 18.3387 7.25136 18.4375 7.5 18.4375H12.5C12.7486 18.4375 12.9871 18.3387 13.1629 18.1629C13.3387 17.9871 13.4375 17.7486 13.4375 17.5C13.4375 17.2514 13.3387 17.0129 13.1629 16.8371C12.9871 16.6613 12.7486 16.5625 12.5 16.5625Z" fill="#1F2937"/>
</svg>
