<svg width="32" height="32" viewBox="0 0 32 32" fill="none" xmlns="http://www.w3.org/2000/svg">
<path d="M11 16C11 15.6044 11.1173 15.2178 11.3371 14.8889C11.5568 14.56 11.8692 14.3036 12.2347 14.1522C12.6001 14.0009 13.0022 13.9613 13.3902 14.0384C13.7782 14.1156 14.1345 14.3061 14.4142 14.5858C14.6939 14.8655 14.8844 15.2219 14.9616 15.6098C15.0388 15.9978 14.9992 16.3999 14.8478 16.7654C14.6964 17.1308 14.4401 17.4432 14.1112 17.6629C13.7823 17.8827 13.3956 18 13 18C12.4696 18 11.9609 17.7893 11.5858 17.4142C11.2107 17.0391 11 16.5304 11 16ZM19 18C19.3956 18 19.7823 17.8827 20.1112 17.6629C20.4401 17.4432 20.6964 17.1308 20.8478 16.7654C20.9992 16.3999 21.0388 15.9978 20.9616 15.6098C20.8844 15.2219 20.6939 14.8655 20.4142 14.5858C20.1345 14.3061 19.7782 14.1156 19.3902 14.0384C19.0022 13.9613 18.6001 14.0009 18.2347 14.1522C17.8692 14.3036 17.5568 14.56 17.3371 14.8889C17.1173 15.2178 17 15.6044 17 16C17 16.5304 17.2107 17.0391 17.5858 17.4142C17.9609 17.7893 18.4696 18 19 18ZM29.5 8V24C29.5 24.663 29.2366 25.2989 28.7678 25.7678C28.2989 26.2366 27.6631 26.5 27 26.5H10.5588L6.62502 29.8962L6.61002 29.91C6.16183 30.2898 5.59373 30.4988 5.00627 30.5C4.63944 30.4991 4.27724 30.418 3.94502 30.2625C3.51223 30.0641 3.14578 29.7452 2.88952 29.3439C2.63325 28.9427 2.49802 28.4761 2.50002 28V8C2.50002 7.33696 2.76341 6.70107 3.23225 6.23223C3.7011 5.76339 4.33698 5.5 5.00002 5.5H27C27.6631 5.5 28.2989 5.76339 28.7678 6.23223C29.2366 6.70107 29.5 7.33696 29.5 8ZM26.5 8.5H5.50002V26.9037L9.02002 23.8638C9.2921 23.6282 9.64017 23.499 10 23.5H26.5V8.5Z" fill="#1F2937"/>
</svg>
