<svg width="32" height="32" viewBox="0 0 32 32" fill="none" xmlns="http://www.w3.org/2000/svg">
<path d="M17.5513 5.61248C17.6541 5.2283 17.9053 4.90068 18.2497 4.70167C18.594 4.50266 19.0033 4.44855 19.3875 4.55123C21.3268 5.05643 23.0961 6.0698 24.5132 7.48683C25.9302 8.90385 26.9436 10.6732 27.4488 12.6125C27.5043 12.8042 27.5211 13.0051 27.498 13.2033C27.4749 13.4016 27.4125 13.5933 27.3145 13.7671C27.2164 13.9409 27.0846 14.0935 26.9268 14.2157C26.769 14.338 26.5884 14.4275 26.3956 14.4791C26.2028 14.5307 26.0016 14.5432 25.8039 14.5161C25.6061 14.4889 25.4158 14.4225 25.244 14.3209C25.0723 14.2192 24.9225 14.0843 24.8036 13.924C24.6846 13.7637 24.5988 13.5813 24.5513 13.3875C24.1787 11.959 23.4321 10.6557 22.3882 9.61179C21.3443 8.56792 20.041 7.82125 18.6125 7.44873C18.2283 7.34588 17.9007 7.09467 17.7017 6.75033C17.5027 6.40599 17.4486 5.99671 17.5513 5.61248ZM28.4813 22.9475C28.2429 24.762 27.3522 26.4277 25.9754 27.6336C24.5987 28.8394 22.8301 29.5028 21 29.5C10.7988 29.5 2.50001 21.2012 2.50001 11C2.49717 9.16986 3.16062 7.40128 4.36643 6.02455C5.57225 4.64782 7.23797 3.7571 9.05251 3.51873C9.58715 3.45376 10.1285 3.56275 10.5964 3.82955C11.0642 4.09635 11.4337 4.50676 11.65 4.99998L14.2888 10.8912C14.2916 10.899 14.2949 10.9065 14.2988 10.9137C14.4609 11.2928 14.5268 11.706 14.4906 12.1167C14.4544 12.5273 14.3172 12.9227 14.0913 13.2675C14.0591 13.3177 14.0236 13.3657 13.985 13.4112L11.6025 16.25C12.485 17.855 14.165 19.52 15.7888 20.4012L18.5775 18.0262C18.6223 17.9888 18.669 17.9537 18.7175 17.9212C19.0635 17.689 19.4623 17.5475 19.8773 17.5095C20.2922 17.4715 20.7101 17.5383 21.0925 17.7037L21.115 17.7137L27 20.35C27.4931 20.5665 27.9034 20.936 28.1702 21.4038C28.4369 21.8716 28.546 22.4129 28.4813 22.9475ZM25.4425 22.94L20.1925 20.5887L17.3888 22.9725C17.3447 23.0106 17.2983 23.0461 17.25 23.0787C16.8896 23.3177 16.4734 23.4591 16.042 23.4891C15.6106 23.5191 15.1788 23.4367 14.7888 23.25C12.3538 22.075 9.92751 19.665 8.75001 17.25C8.56276 16.8617 8.47909 16.4316 8.50712 16.0014C8.53516 15.5713 8.67395 15.1557 8.91001 14.795C8.9426 14.7447 8.97851 14.6967 9.01751 14.6512L11.4125 11.8112L9.06001 6.56123C8.04927 6.78397 7.14509 7.34565 6.49754 8.15304C5.84999 8.96044 5.498 9.96499 5.50001 11C5.50497 15.1093 7.1396 19.0489 10.0453 21.9547C12.9511 24.8604 16.8907 26.495 21 26.5C22.0356 26.5028 23.0411 26.1513 23.8492 25.5036C24.6574 24.856 25.2196 23.9514 25.4425 22.94ZM17.2038 12.1837C17.8172 12.3771 18.3749 12.7155 18.8297 13.1703C19.2845 13.6251 19.6229 14.1828 19.8163 14.7962C19.912 15.1006 20.1022 15.3665 20.3594 15.5553C20.6166 15.7441 20.9272 15.846 21.2463 15.8462C21.3993 15.846 21.5514 15.8229 21.6975 15.7775C22.0755 15.6579 22.3907 15.3935 22.5744 15.0422C22.758 14.6908 22.7951 14.2811 22.6775 13.9025C22.3392 12.8284 21.7468 11.8519 20.9506 11.0556C20.1544 10.2594 19.1778 9.66701 18.1038 9.32873C17.9147 9.2653 17.715 9.2402 17.5161 9.25488C17.3173 9.26956 17.1234 9.32373 16.9457 9.41423C16.7681 9.50474 16.6102 9.62975 16.4814 9.78196C16.3527 9.93417 16.2555 10.1105 16.1957 10.3007C16.1359 10.4909 16.1146 10.6911 16.133 10.8897C16.1515 11.0882 16.2093 11.281 16.3032 11.4569C16.397 11.6328 16.525 11.7883 16.6797 11.9141C16.8343 12.04 17.0125 12.1338 17.2038 12.19V12.1837Z" fill="#1F2937"/>
</svg>
