<svg width="32" height="32" viewBox="0 0 32 32" fill="none" xmlns="http://www.w3.org/2000/svg">
<g clip-path="url(#clip0_3_32)">
<path d="M31.1812 8.66375C30.9345 8.53823 30.6577 8.48347 30.3817 8.50553C30.1057 8.5276 29.8412 8.62562 29.6175 8.78875L26.5 11.0538V9C26.5 8.33696 26.2366 7.70107 25.7678 7.23223C25.2989 6.76339 24.663 6.5 24 6.5H4C3.33696 6.5 2.70107 6.76339 2.23223 7.23223C1.76339 7.70107 1.5 8.33696 1.5 9V23C1.5 23.663 1.76339 24.2989 2.23223 24.7678C2.70107 25.2366 3.33696 25.5 4 25.5H24C24.663 25.5 25.2989 25.2366 25.7678 24.7678C26.2366 24.2989 26.5 23.663 26.5 23V20.9463L29.6175 23.2138C29.8413 23.3766 30.1058 23.4743 30.3818 23.4962C30.6577 23.518 30.9343 23.463 31.1809 23.3374C31.4275 23.2117 31.6346 23.0203 31.7792 22.7843C31.9237 22.5482 32.0002 22.2768 32 22V10C32 9.72344 31.9235 9.45227 31.779 9.21645C31.6345 8.98063 31.4276 8.78935 31.1812 8.66375ZM23.5 22.5H4.5V9.5H23.5V22.5ZM29 19.0537L26.5 17.2362V14.7638L29 12.9462V19.0537Z" fill="#1F2937"/>
</g>
<defs>
<clipPath id="clip0_3_32">
<rect width="32" height="32" fill="white"/>
</clipPath>
</defs>
</svg>
